<svg id="Layer_1" style="enable-background:new 0 0 512 512" version="1.1" viewBox="0 0 512 512" xml:space="preserve" xmlns="http://www.w3.org/2000/svg"><style>.st0{fill:#f16723}.st1{fill:#fbd20a}.st4{fill:#fff}.st5{fill:#4e9bd4}</style><path class="st0" d="M91.2 425c-5.7 0-10.3-4.6-10.3-10.3s4.6-10.3 10.3-10.3c5.7 0 10.3 4.6 10.3 10.3S96.9 425 91.2 425zm0-13.6c-1.8 0-3.3 1.5-3.3 3.3 0 1.8 1.5 3.3 3.3 3.3 1.8 0 3.3-1.5 3.3-3.3 0-1.8-1.5-3.3-3.3-3.3z"/><circle cx="400.9" cy="246.8" r="2.1"/><circle cx="403" cy="58.1" r="2.1"/><circle cx="72.7" cy="140.9" r="2.1"/><circle cx="386.9" cy="52" r="3.1"/><path class="st1" d="M419.1 231.5c-6.6 0-11.9-5.3-11.9-11.9 0-6.6 5.3-11.9 11.9-11.9S431 213 431 219.6c0 6.6-5.3 11.9-11.9 11.9zm0-16.8c-2.7 0-4.9 2.2-4.9 4.9s2.2 4.9 4.9 4.9 4.9-2.2 4.9-4.9-2.2-4.9-4.9-4.9z"/><path class="st0" d="M468.2 394.8h-3.5v-3.5c0-1.9-1.6-3.5-3.5-3.5s-3.5 1.6-3.5 3.5v3.5h-3.5c-1.9 0-3.5 1.6-3.5 3.5s1.6 3.5 3.5 3.5h3.5v3.5c0 1.9 1.6 3.5 3.5 3.5s3.5-1.6 3.5-3.5v-3.5h3.5c1.9 0 3.5-1.6 3.5-3.5s-1.6-3.5-3.5-3.5z"/><path d="M443.7 329.6h-.2c-44.9 0-81.4-36.4-81.4-81.4s36.4-81.4 81.4-81.4h.2c7.8 0 13-8.2 9.3-15.1-34.7-65-103.4-109.2-182.3-108.8-113.3.6-204.3 92-204.3 205.3 0 113.4 91.9 205.3 205.3 205.3 78.5 0 146.6-44 181.2-108.7 3.7-6.9-1.3-15.3-9.2-15.2zm-127.9 65c-16.2 0-29.4-13.2-29.4-29.4s13.2-29.4 29.4-29.4 29.4 13.2 29.4 29.4-13.2 29.4-29.4 29.4z" style="fill:#ffe4b8"/><path d="M443.7 329.6h-.2c-44.9 0-81.4-36.4-81.4-81.4s36.4-81.4 81.4-81.4h.2c7.8 0 13-8.2 9.3-15.1-34.7-65-103.4-109.2-182.3-108.8-4.3 0-8.6.2-12.9.5 72.5 4.9 134.7 47.5 167.2 108.3 3.7 6.9-1.5 15.2-9.3 15.1h-.2c-44.9 0-74.4 36.4-74.4 81.4s29.4 81.4 74.4 81.4h.2c7.9 0 13 8.3 9.2 15.3-32.5 60.8-94.6 103.3-167.1 108.2 4.6.3 9.2.5 13.9.5 78.5 0 146.6-44 181.2-108.7 3.7-7-1.3-15.4-9.2-15.3z" style="fill:#e7d0a9"/><path class="st4" d="M86.7 248.2c0-109.4 89.8-198.5 197.7-205-4.5-.3-9.1-.4-13.7-.4-113.3.6-204.3 92-204.3 205.3 0 113.4 91.9 205.3 205.3 205.3 4.3 0 8.5-.1 12.7-.4-107.5-6.4-197.7-95.6-197.7-204.8z"/><path class="st5" d="M125 63.8h-3.5v-3.5c0-1.9-1.6-3.5-3.5-3.5s-3.5 1.6-3.5 3.5v3.5H111c-1.9 0-3.5 1.6-3.5 3.5s1.6 3.5 3.5 3.5h3.5v3.5c0 1.9 1.6 3.5 3.5 3.5s3.5-1.6 3.5-3.5v-3.5h3.5c1.9 0 3.5-1.6 3.5-3.5s-1.6-3.5-3.5-3.5z"/><circle cx="429.6" cy="425.4" r="2.1"/><path d="M271.7 459.6c-39.8 0-78.7-11.1-112.3-32.2-32.7-20.5-59.2-49.6-76.5-84-1.5-3-.3-6.6 2.7-8.1s6.6-.3 8.1 2.7c16.4 32.4 41.3 59.8 72.2 79.2 31.7 19.9 68.3 30.4 105.9 30.4 73.7 0 141.1-40.4 175.9-105.5 1.1-2 .3-3.7-.1-4.4-.4-.6-1.5-2.1-3.8-2.1h-.2c-48.2 0-87.4-39.2-87.4-87.4 0-3.3 2.7-6 6-6s6 2.7 6 6c0 41.6 33.8 75.4 75.4 75.4h.2c5.8 0 11.1 3 14.1 7.9 3 5 3.1 11 .4 16.2-37 69-108.5 111.9-186.6 111.9zm44.1-57.7c-20.3 0-36.8-16.5-36.8-36.8s16.5-36.8 36.8-36.8 36.8 16.5 36.8 36.8-16.5 36.8-36.8 36.8zm0-61.6c-13.7 0-24.8 11.1-24.8 24.8s11.1 24.8 24.8 24.8 24.8-11.1 24.8-24.8-11.1-24.8-24.8-24.8zm-233.6-6.7c-2.3 0-4.6-1.4-5.5-3.7-4-9.5-7.2-19.3-9.8-29.2-.8-3.2 1.1-6.5 4.3-7.3 3.2-.8 6.5 1.1 7.3 4.3 2.4 9.4 5.5 18.6 9.2 27.6 1.3 3.1-.2 6.6-3.2 7.8-.7.4-1.5.5-2.3.5zm-12.4-41.9c-2.8 0-5.3-2-5.9-4.9-2.5-12.9-3.5-24.1-3.5-38.6 0-56.4 21.8-109.4 61.4-149.1 39.6-39.8 92.5-61.9 148.9-62.2h1.1c78.2 0 149.6 42.8 186.5 112 2.7 5 2.6 11-.4 15.9-3 5-8.3 8-14.2 8h-.2c-33.7 0-63.5 22.7-72.6 55.1-.9 3.2-4.2 5.1-7.4 4.2-3.2-.9-5.1-4.2-4.2-7.4 10.5-37.6 45.1-63.9 84.2-63.9h.2c1.6 0 3.1-.8 3.9-2.2.4-.8 1.1-2.3.1-4.1-34.8-65.2-102.2-105.6-176-105.6h-1c-53.2.3-103.1 21.1-140.4 58.6C93 145 72.4 195 72.4 248.2c0 13.8 1 24.3 3.3 36.4.6 3.3-1.5 6.4-4.7 7-.4.1-.8.1-1.2.1z"/><ellipse cx="210.3" cy="146" rx="30.1" ry="42.1" style="fill:#ee3c7a"/><ellipse class="st4" cx="188" cy="146" rx="30.1" ry="42.1"/><ellipse cx="195.7" cy="146" rx="24.4" ry="42.1" transform="rotate(-1.146 195.715 145.984)" style="fill:#f05f88"/><ellipse cx="330.7" cy="124.1" rx="30.1" ry="42.1" style="fill:#3769a5"/><ellipse class="st4" cx="308.3" cy="124.1" rx="30.1" ry="42.1"/><ellipse class="st5" cx="316.1" cy="124.1" rx="24.4" ry="42.1"/><ellipse cx="157" cy="256" rx="30.1" ry="42.1" style="fill:#faaf1a"/><ellipse class="st4" cx="134.7" cy="256" rx="30.1" ry="42.1"/><ellipse class="st1" cx="142.4" cy="256" rx="24.4" ry="42.1"/><ellipse cx="209.4" cy="357.8" rx="30.1" ry="42.1" style="fill:#f05225"/><ellipse class="st4" cx="187.1" cy="357.8" rx="30.1" ry="42.1"/><ellipse class="st0" cx="194.8" cy="357.8" rx="24.4" ry="42.1"/><path d="M198.3 194.1c-26.5 0-48.1-21.6-48.1-48.1s21.6-48.1 48.1-48.1 48.1 21.6 48.1 48.1-21.6 48.1-48.1 48.1zm0-84.2c-19.9 0-36.1 16.2-36.1 36.1 0 19.9 16.2 36.1 36.1 36.1 19.9 0 36.1-16.2 36.1-36.1 0-19.9-16.2-36.1-36.1-36.1zm121.2 62.3c-26.5 0-48.1-21.6-48.1-48.1S293 76 319.5 76s48.1 21.6 48.1 48.1-21.6 48.1-48.1 48.1zm0-84.2c-19.9 0-36.1 16.2-36.1 36.1 0 19.9 16.2 36.1 36.1 36.1s36.1-16.2 36.1-36.1c0-19.9-16.2-36.1-36.1-36.1zM145.8 304.1c-26.5 0-48.1-21.6-48.1-48.1s21.6-48.1 48.1-48.1 48.1 21.6 48.1 48.1-21.6 48.1-48.1 48.1zm0-84.2c-19.9 0-36.1 16.2-36.1 36.1 0 19.9 16.2 36.1 36.1 36.1 19.9 0 36.1-16.2 36.1-36.1 0-19.9-16.2-36.1-36.1-36.1zm52.5 186c-26.5 0-48.1-21.6-48.1-48.1s21.6-48.1 48.1-48.1 48.1 21.6 48.1 48.1-21.6 48.1-48.1 48.1zm0-84.2c-19.9 0-36.1 16.2-36.1 36.1s16.2 36.1 36.1 36.1c19.9 0 36.1-16.2 36.1-36.1s-16.2-36.1-36.1-36.1z"/></svg>