<svg data-name="Layer 2" id="Layer_2" viewBox="0 0 2050 2050" xmlns="http://www.w3.org/2000/svg"><defs><style>.cls-1{fill:#4d4c78}.cls-4{fill:#c8c2e9}.cls-7{fill:#b9b1e0}.cls-8{fill:#dfdafd}</style></defs><path class="cls-1" d="M942.9 1406.3h164.3v179.72H942.9z"/><path d="M781.8 453.7h-586a42.5 42.5 0 0 0-42.5 42.5v1047.2a42.5 42.5 0 0 0 42.5 42.6h747.1v-101.5a43.6 43.6 0 0 0-.3-5.1L824 491.2a42.5 42.5 0 0 0-42.2-37.5Zm537.1 33.7-210.8 990.2a43.2 43.2 0 0 0-1 8.8v99.6h747.1a42.5 42.5 0 0 0 42.5-42.6V496.2a42.5 42.5 0 0 0-42.5-42.5h-493.7a42.4 42.4 0 0 0-41.6 33.7Z" style="fill:#67baeb"/><path d="m1326 453.7-218.9 1028.2v-75.6H942.9v75.6L819.5 453.7H225.7v1104.2l42.8-17.6a978.3 978.3 0 0 1 725.5-7.6l31 12.5 31-12.5a978.3 978.3 0 0 1 725.5 7.6l42.8 17.6V453.7Z" style="fill:#46a1f8"/><path class="cls-4" d="M1025 1511.6a1010.1 1010.1 0 0 0-768.3 0V365.9a1009.2 1009.2 0 0 1 768.3 0Z"/><path d="m1614.4 1676.2-52.3-43.6-52.2 43.6c-17.7 14.8-44.7 2.2-44.7-20.9v-296.1H1659v296.1c0 23.1-26.9 35.7-44.6 20.9Z" style="fill:#f4c23f"/><path d="M1465.2 1468.3a966.5 966.5 0 0 1 193.8 30.8v-139.9h-193.8Z" style="fill:#f4a93f"/><path class="cls-4" d="M1025 1511.6a1010.1 1010.1 0 0 1 768.3 0V365.9a1009.2 1009.2 0 0 0-768.3 0Z"/><path class="cls-7" d="M320.7 423.2v-81.1c-21.5 7.2-42.9 15.1-64 23.8v1145.7a1094.9 1094.9 0 0 1 768.3 0v-121.3l-6.9-2.3c-416.7-136.1-697.4-526.5-697.4-964.8Zm768.3 0v-81.1q-32.4 10.8-64 23.8v1145.7a1094.9 1094.9 0 0 1 768.3 0v-121.3l-6.9-2.3C1369.6 1251.9 1089 861.5 1089 423.2Z"/><path class="cls-7" d="M383.3 598.9a20 20 0 0 1-6.9-38.8 747.5 747.5 0 0 1 516.9 0 20 20 0 1 1-13.8 37.6 706.7 706.7 0 0 0-489.3 0 20.9 20.9 0 0 1-6.9 1.2Zm0 212a20 20 0 0 1-6.9-38.8 746 746 0 0 1 516.9 0 20 20 0 1 1-13.8 37.5 706.7 706.7 0 0 0-489.3 0 18.7 18.7 0 0 1-6.9 1.3Zm0 211.9a20 20 0 0 1-6.9-38.7 746 746 0 0 1 516.9 0 20 20 0 1 1-13.8 37.5 706.7 706.7 0 0 0-489.3 0 20.9 20.9 0 0 1-6.9 1.2Zm0 212a20 20 0 0 1-6.9-38.8 747.5 747.5 0 0 1 516.9 0 20 20 0 1 1-13.8 37.6 706.7 706.7 0 0 0-489.3 0 20.9 20.9 0 0 1-6.9 1.2Zm1271.4-635.9a20.9 20.9 0 0 1-6.9-1.2 706.7 706.7 0 0 0-489.3 0 20 20 0 0 1-13.8-37.6 747.5 747.5 0 0 1 516.9 0 20 20 0 0 1-6.9 38.8Zm0 212a18.7 18.7 0 0 1-6.9-1.3 706.7 706.7 0 0 0-489.3 0 20 20 0 1 1-13.8-37.5 746 746 0 0 1 516.9 0 20 20 0 0 1-6.9 38.8Zm0 211.9a20.9 20.9 0 0 1-6.9-1.2 706.7 706.7 0 0 0-489.3 0 20 20 0 1 1-13.8-37.5 746 746 0 0 1 516.9 0 20 20 0 0 1-6.9 38.7Zm0 212a20.9 20.9 0 0 1-6.9-1.2 706.7 706.7 0 0 0-489.3 0 20 20 0 1 1-13.8-37.6 747.5 747.5 0 0 1 516.9 0 20 20 0 0 1-6.9 38.8Z"/><path class="cls-8" d="M1665.7 581.9a20.9 20.9 0 0 1-6.9-1.2 706.7 706.7 0 0 0-489.3 0 20 20 0 0 1-13.8-37.6 747.5 747.5 0 0 1 516.9 0 20 20 0 0 1-6.9 38.8Zm0 212a18.7 18.7 0 0 1-6.9-1.3 706.7 706.7 0 0 0-489.3 0 20 20 0 1 1-13.8-37.5 746 746 0 0 1 516.9 0 20 20 0 0 1-6.9 38.8Zm0 211.9a20.9 20.9 0 0 1-6.9-1.2 706.7 706.7 0 0 0-489.3 0 20 20 0 1 1-13.8-37.5 746 746 0 0 1 516.9 0 20 20 0 0 1-6.9 38.7Zm0 212a20.9 20.9 0 0 1-6.9-1.2 706.7 706.7 0 0 0-489.3 0 20 20 0 1 1-13.8-37.6 747.5 747.5 0 0 1 516.9 0 20 20 0 0 1-6.9 38.8ZM394.3 581.9a20 20 0 0 1-6.9-38.8 747.5 747.5 0 0 1 516.9 0 20 20 0 1 1-13.8 37.6 706.7 706.7 0 0 0-489.3 0 20.9 20.9 0 0 1-6.9 1.2Zm0 212a20 20 0 0 1-6.9-38.8 746 746 0 0 1 516.9 0 20 20 0 1 1-13.8 37.5 706.7 706.7 0 0 0-489.3 0 18.7 18.7 0 0 1-6.9 1.3Zm0 211.9a20 20 0 0 1-6.9-38.7 746 746 0 0 1 516.9 0 20 20 0 1 1-13.8 37.5 706.7 706.7 0 0 0-489.3 0 20.9 20.9 0 0 1-6.9 1.2Zm0 212a20 20 0 0 1-6.9-38.8 747.5 747.5 0 0 1 516.9 0 20 20 0 1 1-13.8 37.6 706.7 706.7 0 0 0-489.3 0 20.9 20.9 0 0 1-6.9 1.2Z"/><path class="cls-1" d="M1660.7 588.9a20.9 20.9 0 0 1-6.9-1.2 706.7 706.7 0 0 0-489.3 0 20 20 0 0 1-13.8-37.6 747.5 747.5 0 0 1 516.9 0 20 20 0 0 1-6.9 38.8Zm0 212a18.7 18.7 0 0 1-6.9-1.3 706.7 706.7 0 0 0-489.3 0 20 20 0 1 1-13.8-37.5 746 746 0 0 1 516.9 0 20 20 0 0 1-6.9 38.8Zm0 211.9a20.9 20.9 0 0 1-6.9-1.2 706.7 706.7 0 0 0-489.3 0 20 20 0 1 1-13.8-37.5 746 746 0 0 1 516.9 0 20 20 0 0 1-6.9 38.7Zm0 212a20.9 20.9 0 0 1-6.9-1.2 706.7 706.7 0 0 0-489.3 0 20 20 0 1 1-13.8-37.6 747.5 747.5 0 0 1 516.9 0 20 20 0 0 1-6.9 38.8Z"/><rect class="cls-8" height="545.11" rx="40.8" ry="40.8" width="81.6" x="1711.6" y="425.3"/><rect class="cls-8" height="352.73" rx="29" ry="29" width="58" x="967" y="482.3"/><path class="cls-1" d="M389.3 588.9a20 20 0 0 1-6.9-38.8 747.5 747.5 0 0 1 516.9 0 20 20 0 1 1-13.8 37.6 706.7 706.7 0 0 0-489.3 0 20.9 20.9 0 0 1-6.9 1.2Zm0 212a20 20 0 0 1-6.9-38.8 746 746 0 0 1 516.9 0 20 20 0 1 1-13.8 37.5 706.7 706.7 0 0 0-489.3 0 18.7 18.7 0 0 1-6.9 1.3Zm0 211.9a20 20 0 0 1-6.9-38.7 746 746 0 0 1 516.9 0 20 20 0 1 1-13.8 37.5 706.7 706.7 0 0 0-489.3 0 20.9 20.9 0 0 1-6.9 1.2Zm0 212a20 20 0 0 1-6.9-38.8 747.5 747.5 0 0 1 516.9 0 20 20 0 1 1-13.8 37.6 706.7 706.7 0 0 0-489.3 0 20.9 20.9 0 0 1-6.9 1.2Z"/><rect height="105.38" rx="19.8" ry="19.8" width="39.5" x="1619.5" y="1549.9" style="fill:#fad564"/><rect height="449.76" rx="19.1" ry="19.1" width="38.2" x="1858.5" y="581.9" style="fill:#83d0fb"/></svg>