<svg data-name="Layer 1" id="Layer_1" viewBox="0 0 256 256" xmlns="http://www.w3.org/2000/svg"><defs><style>.cls-1{fill:#40bdff}.cls-2{fill:#fd0}.cls-4{fill:#2197f7}.cls-5{fill:#effafe}.cls-6{fill:#e4ebed}.cls-7{fill:#263238}</style></defs><path class="cls-1" d="M17.81 203.89h230.38l-18.62-54H36.43Zm137.19-8a2 2 0 0 1-2 2h-20a2 2 0 0 1 0-4h20a2 2 0 0 1 2 2Zm-52-2h20a2 2 0 1 1 0 4h-20a2 2 0 0 1 0-4Z"/><path class="cls-2" d="M17 215.89a8 8 0 0 0 8 8h211a8 8 0 0 0 8-8v-8H17Z"/><path d="M239 207.89v8a8 8 0 0 1-8 8h5a8 8 0 0 0 8-8v-8Z" style="fill:#efc803"/><path class="cls-1" d="M52 125.94h6.16v-3.37c0-7 4.05-13.91 12.31-17.07-2.66-2.63-4.31-5.51-4.31-9.55a12.68 12.68 0 0 1 25.36 0c0 4.07-1.68 6.94-4.31 9.55 8.27 3.17 12.31 10.1 12.31 17.07v3.37h6.16V72.28H52Z"/><path class="cls-4" d="M101.66 72.28h4v53.66h-4z"/><path class="cls-5" d="M79.78 104.59a8.69 8.69 0 1 0-1.89 0Z"/><path class="cls-5" d="M37 145.89h187V52.34H37Zm90.66-19.94H186a2 2 0 1 1 0 4h-58.34a2 2 0 0 1 0-4Zm0-18.44H206a2 2 0 0 1 0 4h-78.34a2 2 0 0 1 0-4ZM206 93.06h-78.34a2 2 0 0 1 0-4H206a2 2 0 0 1 0 4Zm0-18.44h-58.34a2 2 0 0 1 0-4H206a2 2 0 0 1 0 4Zm-96.34-4.34v57.66a2 2 0 0 1-2 2H50a2 2 0 0 1-2-2V70.28a2 2 0 0 1 2-2h57.66a2 2 0 0 1 2 2Z"/><path class="cls-1" d="M224 40.11a8 8 0 0 0-8-8H45a8 8 0 0 0-8 8v8.22h187Z"/><path class="cls-4" d="M216 32.11h-5a8 8 0 0 1 8 8v8.22h5v-8.22a8 8 0 0 0-8-8Zm13.57 117.78h-10l18.62 54h10l-18.62-54z"/><path class="cls-6" d="M219 52.34h5v93.55h-5z"/><path class="cls-5" d="M81.51 108.59h-5.36a14 14 0 0 0-14 14v3.37h33.36v-3.37a14 14 0 0 0-14-14Z"/><path class="cls-6" d="M78.83 87.28a8.64 8.64 0 0 0-2 .24 8.67 8.67 0 0 1 0 16.87 8.89 8.89 0 0 0 1.07.19h1.9a8.68 8.68 0 0 0-1-17.3Zm2.68 21.31h-4a14 14 0 0 1 14 14v3.37h4v-3.37a14 14 0 0 0-14-14Z"/><path class="cls-7" d="M107.66 67.78H50a2.5 2.5 0 0 0-2.5 2.5v57.66a2.5 2.5 0 0 0 2.5 2.5h57.66a2.5 2.5 0 0 0 2.5-2.5V70.28a2.5 2.5 0 0 0-2.5-2.5ZM95 125.44H62.66v-2.87a13.51 13.51 0 0 1 13.49-13.49h5.37A13.51 13.51 0 0 1 95 122.58ZM70.65 96a8.18 8.18 0 1 1 9.09 8.12h-1.82A8.19 8.19 0 0 1 70.65 96Zm34.51 29.48H100v-2.87a18.51 18.51 0 0 0-11.9-17.29 13.18 13.18 0 1 0-18.54 0 18.51 18.51 0 0 0-11.91 17.26v2.87H52.5V72.78h52.66Z"/><path class="cls-7" d="M248.47 205.55a2.47 2.47 0 0 0-.08-.36s0-.08 0-.11l-19.86-57.6V40.11A12.51 12.51 0 0 0 216 27.61H40a12.51 12.51 0 0 0-12.5 12.5v107.36l-19.86 57.6v.11a2.47 2.47 0 0 0-.08.36v10.34A12.51 12.51 0 0 0 20 228.39h216a12.51 12.51 0 0 0 12.5-12.5v-10.13c0-.04-.02-.14-.03-.21ZM32.5 40.11a7.51 7.51 0 0 1 7.5-7.5h176a7.51 7.51 0 0 1 7.5 7.5v7.72h-191Zm0 12.72h191v92.55h-191Zm-.72 97.55h192.44l18.28 53h-229Zm211.72 65.5a7.51 7.51 0 0 1-7.5 7.5H20a7.51 7.51 0 0 1-7.5-7.5v-7.5h231Z"/><path class="cls-7" d="M123 193.39h-20a2.5 2.5 0 0 0 0 5h20a2.5 2.5 0 1 0 0-5Zm30 0h-20a2.5 2.5 0 0 0 0 5h20a2.5 2.5 0 0 0 0-5Zm53-123.27h-58.34a2.5 2.5 0 0 0 0 5H206a2.5 2.5 0 0 0 0-5Zm0 18.44h-78.34a2.5 2.5 0 0 0 0 5H206a2.5 2.5 0 0 0 0-5Zm0 18.44h-78.34a2.5 2.5 0 0 0 0 5H206a2.5 2.5 0 0 0 0-5Zm-20 18.44h-58.34a2.5 2.5 0 0 0 0 5H186a2.5 2.5 0 0 0 0-5Z"/><path class="cls-2" d="M117.83 16.43h-4v-4a1 1 0 1 0-2 0v4h-4a1 1 0 0 0 0 2h4v4a1 1 0 0 0 2 0v-4h4a1 1 0 0 0 0-2Zm-96 123.46h-4v-4a1 1 0 0 0-2 0v4h-4a1 1 0 1 0 0 2h4v4a1 1 0 0 0 2 0v-4h4a1 1 0 1 0 0-2ZM25 237.67h-4v-4a1 1 0 0 0-2 0v4h-4a1 1 0 0 0 0 2h4v4a1 1 0 0 0 2 0v-4h4a1 1 0 0 0 0-2Z"/><path class="cls-1" d="M21.83 77.28h-4v-4a1 1 0 1 0-2 0v4h-4a1 1 0 0 0 0 2h4v4a1 1 0 1 0 2 0v-4h4a1 1 0 0 0 0-2ZM229 237.67h-4v-4a1 1 0 0 0-2 0v4h-4a1 1 0 0 0 0 2h4v4a1 1 0 0 0 2 0v-4h4a1 1 0 0 0 0-2ZM188.5 23.3a6 6 0 1 1 6-6 6 6 0 0 1-6 6Zm0-10a4 4 0 1 0 4 4 4 4 0 0 0-4-4Z"/><path class="cls-2" d="M142.5 244.67a6 6 0 1 1 6-6 6 6 0 0 1-6 6Zm0-10a4 4 0 1 0 4 4 4 4 0 0 0-4-4ZM238 64.34a6 6 0 1 1 6-6 6 6 0 0 1-6 6Zm0-10a4 4 0 1 0 4 4 4 4 0 0 0-4-4Z"/></svg>